<svg width="845" height="631" viewBox="0 0 845 631" fill="none" xmlns="http://www.w3.org/2000/svg">
<path d="M839.462 39.1546H300.98C299.798 39.1285 298.86 38.1486 298.886 36.966C298.911 35.8201 299.834 34.8972 300.98 34.8719H839.462C840.645 34.898 841.582 35.8779 841.556 37.0605C841.531 38.2064 840.608 39.1293 839.462 39.1546Z" fill="#E6E6E6"/>
<path d="M395.812 259.209H613.063C613.615 259.209 614.063 259.657 614.063 260.209V386.533C614.063 387.085 613.615 387.532 613.063 387.532H395.812V259.209Z" fill="#E6E6E6"/>
<path d="M612.807 388.215L395.526 260.178L396.098 258.24L613.38 386.277C613.915 386.435 614.221 386.997 614.063 387.532C613.905 388.068 613.343 388.373 612.808 388.215H612.807Z" fill="white"/>
<path d="M396.098 388.501L395.526 386.563L612.807 258.526C613.343 258.368 613.905 258.674 614.063 259.209C614.221 259.744 613.915 260.306 613.38 260.464L396.098 388.501Z" fill="white"/>
<path d="M588.389 132.839H421.241C418.629 132.839 416.511 134.957 416.511 137.57C416.511 140.183 418.629 142.3 421.241 142.3H588.389C591.001 142.3 593.119 140.183 593.119 137.57C593.119 134.957 591.001 132.839 588.389 132.839Z" fill="#E6E6E6"/>
<path d="M610.859 162.371H398.771C396.159 162.371 394.041 164.489 394.041 167.101C394.041 169.714 396.159 171.832 398.771 171.832H610.859C613.471 171.832 615.589 169.714 615.589 167.101C615.589 164.489 613.471 162.371 610.859 162.371Z" fill="#E6E6E6"/>
<path d="M610.859 191.902H398.771C396.159 191.902 394.041 194.02 394.041 196.633C394.041 199.245 396.159 201.363 398.771 201.363H610.859C613.471 201.363 615.589 199.245 615.589 196.633C615.589 194.02 613.471 191.902 610.859 191.902Z" fill="#FED049"/>
<path d="M811.975 291.594C811.958 328.114 788.88 360.64 754.415 372.718C753.684 372.981 752.952 373.219 752.212 373.45C707.008 387.901 658.648 362.972 644.197 317.768C629.746 272.564 654.676 224.204 699.88 209.753C745.083 195.302 793.443 220.232 807.894 265.436C810.598 273.892 811.974 282.716 811.975 291.594Z" fill="#E6E6E6"/>
<path d="M610.82 203.261C610.474 207.244 613.423 210.753 617.406 211.099C617.83 211.136 618.258 211.135 618.682 211.097L629.264 234.544L636.408 223.246L625.265 202.712C624.64 198.741 620.914 196.029 616.943 196.654C613.621 197.177 611.09 199.908 610.82 203.261Z" fill="#FFB6B6"/>
<path d="M715.098 291.562C714.944 290.869 714.748 290.186 714.51 289.518C712.993 285.208 709.904 281.63 705.862 279.501C705.766 279.446 705.663 279.39 705.568 279.342L657.229 254.815L652.941 246.453L635.613 212.697L631.365 213.962L621.325 216.946L621.094 217.009L637.737 273.017L641.556 275.945L684.811 309.025L686.219 310.107C693.405 315.592 703.522 314.997 710.015 308.707C710.662 308.086 711.261 307.415 711.805 306.702C715.103 302.398 716.31 296.847 715.098 291.562Z" fill="#FED049"/>
<path d="M741.973 353.076L741.718 343.847L740.986 317.084C743.635 299.955 745.513 298.054 732.736 286.343C731.749 286.132 730.897 285.513 730.389 284.641C729.228 282.27 732.02 278.244 729.61 272.047L710.588 273.137L705.862 279.501L686.848 305.119C686.103 306.385 685.423 307.689 684.811 309.025C676.672 326.702 687.707 336.098 688.566 337.713L693.833 354.301L696.737 370.387L697.675 372.623L700.325 373.593C717.225 378.871 735.341 378.821 752.212 373.45C749.372 366.385 745.948 359.57 741.973 353.076Z" fill="#FED049"/>
<path d="M778.815 418.135C780.443 414.483 778.802 410.204 775.15 408.576C774.76 408.403 774.357 408.264 773.943 408.162L771.597 382.544L761.155 390.891L764.983 413.938C764.278 417.895 766.913 421.675 770.871 422.381C774.182 422.971 777.466 421.216 778.815 418.135Z" fill="#FFB6B6"/>
<path d="M742.434 292.525C739.675 288.351 735.318 285.499 730.389 284.641C729.334 284.45 728.264 284.354 727.191 284.354C723.617 284.355 720.122 285.409 717.143 287.385C716.198 288.009 715.316 288.723 714.51 289.518C707.28 296.52 707.095 308.058 714.098 315.288L714.104 315.294L741.718 343.847L751.782 354.253L754.416 372.718L758.465 401.128L762.888 401.319L773.358 401.78L773.597 401.788L775.339 361.978L776.151 343.418L742.434 292.525Z" fill="#FED049"/>
<path d="M704.698 228.377C697.973 241.633 702.366 256.987 714.846 265.061C728.341 273.792 745.862 271.88 751.529 254.913C757.84 236.019 752.656 227.913 741.382 218.23C728.17 206.882 711.965 214.055 704.698 228.377Z" fill="#2F2E41"/>
<path d="M737.804 257.906C730.671 267.256 717.309 269.053 707.96 261.92C698.622 254.797 696.816 241.458 703.922 232.107L704.107 231.864C711.447 222.677 724.846 221.179 734.033 228.52C743.012 235.693 744.678 248.697 737.798 257.902L737.804 257.906Z" fill="#FFB6B6"/>
<path d="M698.181 226.231C701.641 229.524 705.859 231.914 710.462 233.19C711.385 232.123 712.479 231.216 713.699 230.508C713.115 231.723 712.715 233.018 712.511 234.351C714.564 238.612 722.949 241.674 730.963 244.806L741.577 226.074L727.528 218.113C716.239 210.308 702.949 213.639 698.181 226.231Z" fill="#2F2E41"/>
<path d="M749.584 218.253C751.666 217.486 753.994 217.826 755.77 219.157C757.48 220.457 758.863 222.139 759.808 224.069C761.527 227.191 762.761 230.555 763.47 234.048C764.076 237.069 763.973 240.722 761.262 242.299C759 243.615 755.766 242.786 753.687 241.03C751.76 239.188 750.299 236.915 749.423 234.397C748.408 231.987 747.449 229.489 745.646 227.488L747.519 228.362C746.927 226.565 746.651 224.678 746.704 222.787C746.791 220.871 747.887 219.146 749.584 218.253Z" fill="#2F2E41"/>
<path d="M725.284 220.708L740.357 229.249C748.844 234.058 751.825 244.837 747.016 253.324C740.045 265.624 724.864 270.606 711.961 264.829L725.734 252.67L707.049 262.19L703.06 259.929C723.099 256.286 726.964 240.567 725.284 220.708Z" fill="#2F2E41"/>
<path d="M753.757 235.719C756.294 238.672 760.265 239.82 763.848 241.357C776.686 246.989 785.915 258.595 788.511 272.371C789.502 277.898 789.372 283.62 790.937 289.008C792.492 294.396 796.344 299.682 801.871 300.617C805.611 301.256 809.36 299.812 812.878 298.386C814.813 297.608 816.748 296.828 818.683 296.044C816.665 290.98 814.65 285.916 812.638 280.852C815.871 285.631 819.632 290.031 823.849 293.97C830.783 291.174 837.723 288.378 844.67 285.582C827.58 285.647 830.496 269.057 826.673 252.411C824.571 243.264 806.676 237.071 803.167 228.368C797.686 214.725 782.183 208.107 768.54 213.587C762.66 215.949 757.816 220.33 754.877 225.943C751.369 227.341 751.267 232.803 753.757 235.719Z" fill="#2F2E41"/>
<path d="M257.31 395.972C254.108 391.918 254.799 386.035 258.854 382.833C259.246 382.523 259.663 382.245 260.101 382.001L255.22 335.63L267.714 331.126L273.108 386.245C275.277 390.926 273.24 396.479 268.558 398.648C264.641 400.462 259.991 399.356 257.31 395.973V395.972Z" fill="#FFB6B6"/>
<path d="M250.628 225.961C250.628 225.961 270.911 235.858 270.977 247.492C271.043 259.127 272.723 269.649 271.136 274.151C269.548 278.653 275.169 311.374 272.538 314.614C269.907 317.855 275.328 319.513 272.479 325.059C269.631 330.604 268.37 331.648 269.413 332.909C270.457 334.171 271.991 358.21 271.991 358.21L255.277 360.3L237.498 282.709L250.628 225.961Z" fill="#007580"/>
<path d="M154.172 400.683C157.973 397.184 158.218 391.266 154.719 387.464C154.38 387.096 154.012 386.756 153.618 386.446L165.749 341.424L154.121 335.007L140.104 388.586C137.225 392.867 138.361 398.672 142.642 401.551C146.224 403.961 150.991 403.602 154.172 400.683Z" fill="#FFB6B6"/>
<path d="M187.575 233.852C187.575 233.852 165.986 240.427 164.086 251.905C162.187 263.384 158.869 273.51 159.726 278.206C160.584 282.901 149.874 314.327 151.961 317.941C154.049 321.556 148.434 322.339 150.373 328.264C152.311 334.19 153.392 335.419 152.163 336.5C150.933 337.581 145.628 361.078 145.628 361.078L161.803 365.778L191.594 291.96L187.575 233.852Z" fill="#007580"/>
<path d="M270.487 602.109L284.887 602.108L291.738 546.564L270.485 546.565L270.487 602.109Z" fill="#FFB6B6"/>
<path d="M289.679 603.405V593.643L285.894 593.874L270.483 594.787L266.917 595.006L264.19 627.702L264.044 629.454H274.269L274.597 627.714L276.082 619.802L279.917 627.714L280.757 629.454H307.865C311.222 629.433 313.937 626.713 313.951 623.356C315.096 618.012 292.552 606.46 289.679 603.405Z" fill="#2F2E41"/>
<path d="M101.78 586.434L114.305 593.54L147.674 548.611L129.189 538.124L101.78 586.434Z" fill="#FFB6B6"/>
<path d="M117.839 597.027L122.647 588.542L119.263 586.875L105.399 580.07L102.185 578.488L86.3973 601.604L82.6846 607.032L86.8841 609.418L91.5706 612.084L97.9246 604.586L97.2187 615.285L119.361 627.86H119.373L120.797 628.663C123.725 630.317 127.44 629.288 129.099 626.362C132.726 622.273 118.825 601.117 117.839 597.027Z" fill="#2F2E41"/>
<path d="M199.024 329.455C167.108 330.602 155.891 460.729 165.637 463.09L120.154 547.854L184.893 576.874L227.46 429.072L234.554 483.463L225.095 569.78L266.941 579.899L295.885 577.832C288.364 474.944 269.586 366.43 254.024 324.455L199.024 329.455Z" fill="#282846"/>
<path d="M184.372 338.579L184.162 339.369C204.562 350.719 218.493 348.29 240.793 341.42L257.072 337.999C260.626 333.365 257.73 328.833 253.793 324.42L263.552 244.149C263.487 233.749 255.003 225.371 244.603 225.437C244.176 225.44 243.748 225.457 243.322 225.489L228.662 214.629L207.792 215.349L193.832 230.769L185.492 233.749L179.012 236.059C177.702 237.239 176.272 238.599 174.902 240.099L185.152 301.099L189.512 319.339C183.668 326.003 180.448 332.507 184.372 338.579Z" fill="#007580"/>
<path d="M65.974 619.38C50.7878 617.572 37.229 609.005 29.0746 596.067C23.8388 587.576 21.1371 577.492 18.5243 567.74C17.7636 564.902 16.9774 561.968 16.1449 559.139C14.2191 552.814 16.3347 545.954 21.4882 541.812C26.4702 537.636 33.4917 536.912 39.2216 539.982L39.8329 540.307L40.9042 564.385C42.4916 561.159 45.975 553.872 48.7348 546.596L48.9662 545.986L49.495 546.368C55.0434 550.354 60.0678 555.023 64.4496 560.265C80.1096 579.302 86.6025 604.265 82.2035 628.52L82.0702 629.234L65.974 619.38Z" fill="#F2F2F2"/>
<path d="M5.3676e-06 629.058C-0.00194463 629.714 0.527665 630.246 1.18293 630.248H843.48C844.137 630.248 844.67 629.716 844.67 629.058C844.67 628.401 844.137 627.868 843.48 627.868H1.19002C0.534725 627.866 0.00195537 628.396 1.53676e-05 629.051V629.058H5.3676e-06Z" fill="#CCCCCC"/>
<path d="M247.908 200.935L247.929 200.93C250.202 200.328 251.557 197.998 250.955 195.725L244.892 172.755C243.81 168.639 241.911 164.782 239.308 161.415C234.218 154.845 226.79 150.494 218.57 149.267C214.328 148.638 210.003 148.875 205.855 149.963C188.885 154.414 184.145 160.027 183.187 188.749C182.229 217.472 189.26 211.754 189.26 211.754C189.405 212.308 189.661 212.827 190.011 213.28C190.697 214.163 191.697 214.747 192.802 214.91C193.37 214.993 193.948 214.961 194.503 214.816C215.695 212.635 237.157 210.648 247.912 200.934L247.908 200.935Z" fill="#2F2E41"/>
<path d="M198.082 176.685C194.972 189.239 202.628 201.937 215.181 205.047C221.198 206.537 227.56 205.582 232.873 202.389C238.185 199.22 242.007 194.057 243.488 188.052C246.587 175.496 238.921 162.804 226.365 159.704C220.363 158.223 214.019 159.174 208.717 162.351C203.398 165.516 199.568 170.678 198.082 176.686V176.685Z" fill="#FFB6B6"/>
<path d="M252.671 172.702C251.814 169.446 250.313 166.396 248.254 163.733C245.33 156.443 240.743 150.551 231.856 154.128C228.522 153.635 225.124 153.818 221.863 154.666L217.259 155.856C217.208 155.87 217.156 155.883 217.104 155.897C203.718 159.439 195.738 173.162 199.28 186.548L199.402 187.009L209.138 184.481L210.009 174.34L213.122 183.448L218.151 182.144L218.59 177.029L220.161 181.62C229.696 185.325 240.748 181.65 252.788 173.164L252.671 172.702Z" fill="#2F2E41"/>
<path d="M230.333 204.8C230.682 205.503 230.826 206.289 230.749 207.069C230.713 207.467 230.621 207.859 230.476 208.232C230.351 208.55 230.19 208.853 229.994 209.133C229.414 209.96 228.558 210.554 227.58 210.808C227.519 210.824 227.458 210.838 227.396 210.851C227.335 210.864 227.273 210.876 227.21 210.887C227.147 210.898 227.084 210.907 227.021 210.915C226.958 210.922 226.894 210.929 226.83 210.934L223.213 211.218L215.777 202.315L218.233 211.619L201.793 212.937L191.371 173.454L217.714 166.635L217.263 167.562C215.774 170.667 215.169 174.123 215.517 177.549C215.886 181.014 216.845 184.391 218.355 187.532C219.857 190.718 221.661 193.752 223.743 196.592C225.573 199.112 227.546 201.525 229.653 203.818C229.925 204.112 230.154 204.443 230.333 204.8Z" fill="#2F2E41"/>
<path d="M360.758 17.2901C365.429 17.2901 369.215 13.4196 369.215 8.64507C369.215 3.87053 365.429 0 360.758 0C356.088 0 352.302 3.87053 352.302 8.64507C352.302 13.4196 356.088 17.2901 360.758 17.2901Z" fill="#3F3D56"/>
<path d="M389.972 17.2901C394.643 17.2901 398.429 13.4196 398.429 8.64507C398.429 3.87053 394.643 0 389.972 0C385.302 0 381.516 3.87053 381.516 8.64507C381.516 13.4196 385.302 17.2901 389.972 17.2901Z" fill="#3F3D56"/>
<path d="M419.186 17.2901C423.856 17.2901 427.642 13.4196 427.642 8.64507C427.642 3.87053 423.856 0 419.186 0C414.515 0 410.729 3.87053 410.729 8.64507C410.729 13.4196 414.515 17.2901 419.186 17.2901Z" fill="#3F3D56"/>
<path d="M452.497 15.4779C452.238 15.4779 451.978 15.3773 451.782 15.1771L446.076 9.3441C445.696 8.95543 445.696 8.33431 446.076 7.94564L451.782 2.11312C452.17 1.71859 452.803 1.71224 453.197 2.0975C453.592 2.48373 453.598 3.11703 453.212 3.51156L448.19 8.64487L453.212 13.7787C453.598 14.1732 453.592 14.8065 453.197 15.1927C453.002 15.3831 452.75 15.4779 452.497 15.4779Z" fill="#3F3D56"/>
<path d="M462.086 15.4779C461.833 15.4779 461.581 15.3831 461.386 15.1927C460.991 14.8065 460.985 14.1737 461.371 13.7787L466.392 8.64487L461.371 3.51157C460.985 3.11704 460.991 2.48374 461.386 2.09751C461.781 1.71079 462.414 1.71812 462.801 2.11313L468.506 7.94565C468.886 8.33432 468.886 8.95542 468.506 9.34409L462.801 15.1771C462.605 15.3773 462.345 15.4779 462.086 15.4779Z" fill="#3F3D56"/>
<path d="M760.596 1.00089H749.986C748.776 1.00089 747.796 1.98087 747.796 3.19089V13.8109C747.796 15.0209 748.776 16.0009 749.986 16.0009H760.596C761.806 16.0009 762.796 15.0209 762.796 13.8109V3.19089C762.796 1.98087 761.806 1.00089 760.596 1.00089Z" fill="#3F3D56"/>
<path d="M734.596 1.00089H723.986C722.776 1.00089 721.796 1.98087 721.796 3.19089V13.8109C721.796 15.0209 722.776 16.0009 723.986 16.0009H734.596C735.806 16.0009 736.796 15.0209 736.796 13.8109V3.19089C736.796 1.98087 735.806 1.00089 734.596 1.00089Z" fill="#3F3D56"/>
<path d="M785.096 1.50089H774.486C773.276 1.50089 772.296 2.48087 772.296 3.69089V14.3109C772.296 15.5209 773.276 16.5009 774.486 16.5009H785.096C786.306 16.5009 787.296 15.5209 787.296 14.3109V3.69089C787.296 2.48087 786.306 1.50089 785.096 1.50089Z" fill="#3F3D56"/>
<path d="M625.174 5.54089H540.364C538.884 5.54089 537.694 6.7409 537.694 8.21093C537.694 9.68096 538.884 10.8809 540.364 10.8809H625.174C626.644 10.8809 627.844 9.6809 627.844 8.21093C627.844 6.74096 626.644 5.54089 625.174 5.54089Z" fill="#3F3D56"/>
</svg>
