<svg width="676" height="676" viewBox="0 0 676 676" fill="none" xmlns="http://www.w3.org/2000/svg">
<g clip-path="url(#clip0_12_30)">
<path d="M676 338C676.042 374.96 670.012 411.675 658.15 446.68C657.47 448.68 656.773 450.673 656.06 452.66C643.499 487.397 625.335 519.843 602.29 548.71C595.41 557.34 588.12 565.613 580.42 573.53C572.72 581.46 564.637 589.003 556.17 596.16C508.944 636.209 451.575 662.44 390.39 671.96H390.38C382.58 673.17 374.703 674.113 366.75 674.79C357.28 675.59 347.697 675.993 338 676C292.907 676.059 248.261 667.066 206.708 649.553C165.154 632.041 127.539 606.366 96.09 574.05C93.88 571.79 91.7033 569.497 89.56 567.17C84.22 561.38 79.0833 555.41 74.15 549.26C71.38 545.8 68.6767 542.287 66.04 538.72C49.799 516.779 36.2865 492.944 25.8 467.74C21.328 457.006 17.4226 446.044 14.1 434.9C13.86 434.11 13.63 433.32 13.4 432.53C12.9 430.83 12.4167 429.12 11.95 427.4C3.99512 398.267 -0.0239169 368.2 -1.60959e-05 338C-1.60959e-05 151.33 151.33 0 338 0C524.67 0 676 151.33 676 338Z" fill="#D8EBE4"/>
<path d="M143.348 202.032C142.825 205.209 143.004 208.462 143.874 211.563C144.744 214.663 146.284 217.535 148.384 219.976C150.484 222.417 153.093 224.367 156.029 225.691C158.964 227.014 162.154 227.678 165.374 227.635L219.328 384.628L253.755 360.968L187.296 203.73C186.866 198.326 184.468 193.268 180.557 189.514C176.646 185.759 171.494 183.57 166.077 183.361C160.659 183.151 155.353 184.936 151.164 188.378C146.975 191.819 144.194 196.677 143.348 202.032V202.032Z" fill="#A0616A"/>
<path d="M424.955 255.15C400.995 282.41 341.915 330.45 293.245 363.53C282.725 370.68 272.685 377.12 263.595 382.51C257.455 386.15 251.745 389.3 246.605 391.87C243.156 393.589 239.388 394.576 235.539 394.771C231.69 394.966 227.842 394.364 224.236 393.003C220.63 391.642 217.344 389.551 214.584 386.861C211.824 384.171 209.649 380.94 208.195 377.37L174.495 295.84L186.155 288.11L214.905 269.04L221.435 264.72L248.395 328.93L276.825 306.11L294.475 291.94L374.935 227.37L381.875 225.31L398.065 241.11L409.515 252.29L420.285 254.16C421.895 254.44 423.455 254.77 424.955 255.15Z" fill="#FED049"/>
<path d="M615.796 347.711C616.84 339.164 620.42 330.974 623.996 322.791C624.801 320.95 625.605 319.109 626.381 317.264L626.381 317.264C631.247 305.654 647.821 305.533 652.486 317.176L652.488 317.182C652.494 317.196 652.499 317.208 652.504 317.22C651.768 317.967 651.057 318.738 650.371 319.534L650.371 319.534C649.363 320.707 648.734 322.157 648.564 323.693C648.394 325.23 648.693 326.782 649.42 328.146C650.147 329.51 651.269 330.623 652.639 331.338C653.914 332.004 655.347 332.297 656.777 332.188C657.347 335.577 657.672 339.003 657.75 342.439C657.873 352.492 655.918 362.462 652.008 371.725C648.098 380.987 642.317 389.342 635.027 396.266C634.547 396.717 634.083 397.151 633.6 397.574L633.263 397.871L633.521 398.238C638.14 404.806 642.288 411.693 645.935 418.847L645.935 418.849C649.172 425.154 652.016 431.654 654.45 438.311C655.628 441.552 656.704 444.827 657.676 448.139C657.187 449.575 656.689 451.007 656.183 452.436C656.042 451.906 655.898 451.377 655.752 450.847L655.752 450.846C654.12 444.99 652.161 439.23 649.884 433.593C648.018 428.969 645.952 424.442 643.685 420.012L643.685 420.012C631.36 395.948 613.5 375.152 591.572 359.335L591.491 359.276L591.393 359.253C582.457 357.186 574.37 352.43 568.221 345.625L568.22 345.624C566.162 343.355 564.417 340.821 563.031 338.091C563.738 337.974 564.439 337.834 565.123 337.689L565.125 337.689C565.268 337.658 565.413 337.625 565.555 337.593L565.556 337.593C565.697 337.561 565.833 337.529 565.967 337.501L566.07 337.482L566.081 337.48L566.093 337.477C567.171 337.227 568.153 336.671 568.922 335.876C569.692 335.081 570.215 334.081 570.429 332.995C570.643 331.91 570.539 330.786 570.129 329.758C569.72 328.731 569.023 327.844 568.122 327.204C567.758 326.94 567.388 326.681 567.024 326.425C566.875 326.321 566.727 326.217 566.582 326.114C566.073 325.742 565.556 325.38 565.042 325.02C564.766 324.827 564.491 324.635 564.219 324.442L564.207 324.434L564.194 324.426C564.128 324.384 564.064 324.339 564.003 324.29L563.991 324.281L563.98 324.273C563.66 324.045 563.342 323.822 563.026 323.599C562.543 323.26 562.065 322.923 561.587 322.579C562.268 320.557 563.381 318.706 564.851 317.156C570.231 311.605 579.923 311.688 586.288 316.276L586.288 316.276C592.658 320.861 595.896 328.926 596.311 336.846L596.311 336.847C596.676 343.632 595.215 350.367 593.27 356.979L593.171 357.316L593.454 357.523C593.69 357.696 593.91 357.851 594.126 358.003C594.396 358.193 594.66 358.379 594.939 358.589L594.942 358.592C603.919 365.245 612.221 372.762 619.73 381.036L620.561 380.506C616.245 370.268 614.677 356.896 615.796 347.711ZM615.796 347.711L615.3 347.65M615.796 347.711L615.3 347.65M615.3 347.65C614.218 356.527 615.621 369.246 619.561 379.371L650.75 319.86C651.5 318.99 652.28 318.15 653.09 317.34C653.059 317.248 653.022 317.161 652.984 317.072C652.973 317.045 652.962 317.018 652.95 316.99C648.11 304.91 630.95 305.07 625.92 317.07C625.151 318.899 624.351 320.73 623.549 322.564C619.97 330.751 616.354 339.024 615.3 347.65Z" fill="#007580" stroke="#FED049"/>
<path d="M465.185 342.55L462.165 549.96L218.205 542.96L257.165 456.96C256.885 454.2 274.265 434.83 274.165 431.96C273.865 423.55 280.145 415.76 281.165 406.96C283.245 388.81 271.335 320.27 276.825 306.11C279.164 299.787 282.161 293.727 285.765 288.03C288.885 283.31 292.085 280.13 295.145 278.98L304.165 257.96L312.165 245.96L374.935 227.37L381.875 225.31L398.065 241.11L409.515 252.29L420.285 254.16C421.895 254.44 423.455 254.77 424.955 255.15C432.18 256.816 438.913 260.152 444.615 264.89C463.415 280.86 465.605 310.9 465.185 342.55Z" fill="#FED049"/>
<path d="M601 548C594.174 556.855 586.941 565.344 579.301 573.466L553.128 573.487L412.37 573.651L387.031 573.682L370.184 573.702L345.122 573.723L325.844 573.743L290.235 573.785L269.231 573.815L225.001 573.856L203.888 573.887L145.38 573.949L108.63 573.99L98.768 574C96.5753 571.681 94.4157 569.328 92.2892 566.941C86.9911 561 81.8947 554.875 77 548.564L97.4187 548.544L111.329 548.534L143.534 548.492L205.683 548.431L226.687 548.41L235.18 548.4H235.21L241.877 548.39L244.864 548.38L252.513 548.369H255.748L278.429 548.349L327.352 548.287L348.882 548.267L369.499 548.246L388.826 548.226L416.557 548.195L564.667 548.041L601 548Z" fill="#CCCCCC"/>
<path d="M267.766 236.972L267.711 236.977C264.827 237.246 261.953 236.357 259.724 234.507C257.494 232.657 256.09 229.997 255.822 227.112L250.135 166.412C249.106 155.539 250.273 144.569 253.568 134.155C260.027 113.83 274.08 96.7823 292.798 86.5634C302.463 81.3009 313.094 78.0498 324.049 77.006C368.869 72.736 385.248 82.0706 412.934 150.427C440.62 218.784 418.629 211.219 418.629 211.219C418.768 212.682 418.611 214.158 418.167 215.559C417.295 218.292 415.402 220.582 412.881 221.952C411.588 222.653 410.167 223.087 408.703 223.229C355.716 236.697 302.251 250.874 267.757 236.973L267.766 236.972Z" fill="#2F2E41"/>
<path d="M366.387 134.521C373.039 144.362 376.625 155.953 376.692 167.831C376.759 179.709 373.305 191.34 366.766 201.256C360.227 211.172 350.896 218.928 339.951 223.544C329.007 228.16 316.94 229.429 305.275 227.191C297.553 225.735 290.196 222.761 283.632 218.441C277.068 214.121 271.426 208.542 267.033 202.026C260.396 192.188 256.82 180.605 256.756 168.738C256.693 156.871 260.144 145.25 266.675 135.342C273.207 125.433 282.526 117.68 293.457 113.061C304.388 108.441 316.443 107.161 328.101 109.383C335.829 110.83 343.193 113.798 349.765 118.114C356.337 122.429 361.988 128.007 366.388 134.523L366.387 134.521Z" fill="#9E616A"/>
<path d="M231.346 173.156C230.532 164.556 231.456 155.88 234.062 147.644C234.666 127.497 240.511 109.248 265.084 110.014C272.68 105.882 281.03 103.32 289.636 102.481L301.779 101.281C301.916 101.268 302.052 101.255 302.189 101.242C310.602 100.459 319.086 101.341 327.159 103.837C335.231 106.333 342.732 110.395 349.235 115.79C355.738 121.185 361.114 127.808 365.057 135.281C369 142.754 371.432 150.931 372.215 159.344L372.329 160.56L346.638 163.071L335.581 139.409L336.126 164.104L322.857 165.406L317.281 153.468L317.554 165.919C297.852 183.27 267.977 184.18 231.471 174.373L231.346 173.156Z" fill="#2F2E41"/>
<path d="M313.525 230.755C313.306 232.755 313.653 234.776 314.527 236.589C314.967 237.517 315.534 238.379 316.214 239.15C316.795 239.806 317.452 240.392 318.17 240.894C320.299 242.376 322.885 243.051 325.466 242.798C325.627 242.781 325.787 242.761 325.948 242.739C326.108 242.716 326.268 242.69 326.427 242.66C326.588 242.631 326.748 242.598 326.907 242.56C327.066 242.523 327.225 242.482 327.385 242.438L336.351 239.926L346.4 211.906L348.704 236.493L389.477 225.141L379.702 120.806L310.207 127.654L312.113 129.489C318.446 135.653 322.955 143.444 325.145 152.006C327.318 160.681 327.989 169.665 327.128 178.568C326.324 187.569 324.657 196.473 322.151 205.156C319.97 212.845 317.347 220.402 314.296 227.789C313.902 228.737 313.642 229.735 313.525 230.755V230.755Z" fill="#2F2E41"/>
<path d="M322.792 559.709C321.597 559.708 320.417 559.441 319.338 558.928L126.818 563.84C125.341 563.14 124.111 562.009 123.29 560.595C122.469 559.181 122.096 557.552 122.221 555.922C122.346 554.292 122.962 552.738 123.988 551.466C125.014 550.194 126.402 549.262 127.968 548.795L253.92 511.24C255.225 510.851 256.606 510.799 257.936 511.086L452.762 534.833C454.486 535.205 456.041 536.132 457.189 537.471C458.337 538.81 459.016 540.488 459.121 542.249C459.225 544.01 458.751 545.756 457.771 547.222C456.79 548.688 455.356 549.793 453.689 550.368L325.43 559.265C324.581 559.558 323.69 559.708 322.792 559.709V559.709Z" fill="#282846"/>
<path d="M329.873 546.307C329.003 546.308 328.148 546.085 327.389 545.661L171.035 552.966C170.147 552.468 169.43 551.714 168.977 550.802C168.523 549.891 168.355 548.864 168.493 547.856C168.632 546.847 169.071 545.904 169.753 545.148C170.435 544.393 171.329 543.86 172.319 543.62L228.922 529.881C229.806 529.668 230.73 529.695 231.6 529.96L376.953 529.785C377.988 530.102 378.894 530.742 379.539 531.611C380.184 532.479 380.534 533.532 380.538 534.614C380.542 535.696 380.199 536.751 379.56 537.625C378.921 538.498 378.02 539.144 376.987 539.468L331.385 546.076C330.895 546.23 330.385 546.307 329.873 546.307V546.307Z" fill="#2F2E41"/>
<path d="M313.415 537.974C316.121 539.718 319.177 540.849 322.367 541.285C325.558 541.721 328.805 541.452 331.88 540.497C334.955 539.542 337.784 537.925 340.166 535.759C342.549 533.593 344.427 530.931 345.67 527.96L511.165 540.96L503.165 499.96L332.468 498.334C327.339 496.577 321.744 496.763 316.743 498.857C311.742 500.95 307.683 504.805 305.335 509.691C302.986 514.577 302.511 520.155 304.001 525.368C305.49 530.58 308.84 535.066 313.415 537.974V537.974Z" fill="#A0616A"/>
<path d="M411.165 270.96C411.165 270.96 436.165 250.96 466.165 286.96C486.397 311.238 525.425 458.004 528.661 518.822C528.865 522.671 528.273 526.52 526.92 530.129C525.568 533.737 523.484 537.028 520.801 539.794C518.117 542.559 514.891 544.741 511.325 546.202C507.758 547.663 503.929 548.371 500.076 548.283L411.865 546.748L402.001 491.298L471.645 492.122L411.165 270.96Z" fill="#FED049"/>
<path d="M312.084 559.732C309.058 559.729 306.063 559.123 303.274 557.948L124.832 562.019C120.122 560.055 116.213 556.56 113.736 552.099C111.259 547.639 110.358 542.473 111.181 537.437L104.55 380.725C105.43 375.128 108.376 370.063 112.807 366.532C117.238 363.001 122.833 361.259 128.485 361.652L294.148 368.523C297.328 368.731 300.429 369.606 303.249 371.09C306.069 372.574 308.546 374.634 310.519 377.137C312.492 379.639 313.916 382.529 314.701 385.618C315.485 388.707 315.611 391.926 315.071 395.066L334.48 540.835C333.568 546.117 330.821 550.907 326.725 554.363C322.628 557.82 317.444 559.721 312.084 559.732V559.732Z" fill="#282846"/>
<path d="M163.713 49.2877L61.7111 49C58.9769 48.9968 56.353 50.078 54.4145 52.0066C52.476 53.9352 51.3811 56.5539 51.3698 59.2886L51 194.383C50.9942 197.114 52.0729 199.737 53.9991 201.674C55.9254 203.611 58.5415 204.704 61.2728 204.712L117.856 204.877L163.289 205C166.022 205.005 168.646 203.924 170.583 201.995C172.519 200.065 173.611 197.445 173.616 194.711L173.644 186.724L174 59.6311C174.006 56.8957 172.925 54.2699 170.997 52.3305C169.068 50.3911 166.448 49.2967 163.713 49.2877V49.2877Z" fill="#E6E6E6"/>
<path d="M156.391 57.247L68.91 57C66.3554 56.9968 63.9038 58.0103 62.0924 59.8184C60.2809 61.6266 59.2574 64.0818 59.2461 66.6462L59 153.64C58.9829 165.065 63.4805 176.03 71.5061 184.13C79.5318 192.23 90.4302 196.804 101.811 196.849L118.432 196.89L156.008 197C158.563 197.006 161.016 195.993 162.828 194.184C164.64 192.376 165.663 189.919 165.672 187.354L165.699 178.6L166 66.9481C166.006 64.383 164.997 61.9205 163.195 60.1016C161.393 58.2827 158.946 57.256 156.391 57.247V57.247Z" fill="white"/>
<path d="M146.874 116H78.1262C77.5844 116 77.0478 116.116 76.5472 116.343C76.0466 116.569 75.5917 116.9 75.2085 117.318C74.8254 117.736 74.5214 118.232 74.3141 118.778C74.1067 119.324 74 119.909 74 120.5C74 121.091 74.1067 121.676 74.3141 122.222C74.5214 122.768 74.8254 123.264 75.2085 123.682C75.5917 124.1 76.0466 124.431 76.5472 124.657C77.0478 124.884 77.5844 125 78.1262 125H146.874C147.968 125 149.018 124.526 149.791 123.682C150.565 122.838 151 121.693 151 120.5C151 119.307 150.565 118.162 149.791 117.318C149.018 116.474 147.968 116 146.874 116V116Z" fill="#FED049"/>
<path d="M92.9384 94H78.0616C76.9844 94 75.9513 94.4214 75.1896 95.1716C74.4279 95.9217 74 96.9391 74 98C74 99.0609 74.4279 100.078 75.1896 100.828C75.9513 101.579 76.9844 102 78.0616 102H92.9384C94.0156 102 95.0487 101.579 95.8104 100.828C96.5721 100.078 97 99.0609 97 98C97 96.9391 96.5721 95.9217 95.8104 95.1716C95.0487 94.4214 94.0156 94 92.9384 94V94Z" fill="#FED049"/>
<path d="M146.874 153H78.1262C77.0319 153 75.9823 153.421 75.2085 154.172C74.4347 154.922 74 155.939 74 157C74 158.061 74.4347 159.078 75.2085 159.828C75.9823 160.579 77.0319 161 78.1262 161H146.874C147.968 161 149.018 160.579 149.791 159.828C150.565 159.078 151 158.061 151 157C151 155.939 150.565 154.922 149.791 154.172C149.018 153.421 147.968 153 146.874 153V153Z" fill="#FED049"/>
<path d="M146.88 135H78.1201C77.0274 135 75.9794 135.421 75.2067 136.172C74.4341 136.922 74 137.939 74 139C74 140.061 74.4341 141.078 75.2067 141.828C75.9794 142.579 77.0274 143 78.1201 143H146.88C147.973 143 149.021 142.579 149.793 141.828C150.566 141.078 151 140.061 151 139C151 137.939 150.566 136.922 149.793 136.172C149.021 135.421 147.973 135 146.88 135V135Z" fill="#FED049"/>
<path d="M133.5 108C128.654 108 123.918 106.592 119.889 103.955C115.86 101.318 112.719 97.5699 110.865 93.1844C109.011 88.799 108.525 83.9734 109.471 79.3178C110.416 74.6623 112.75 70.3859 116.176 67.0295C119.602 63.673 123.968 61.3872 128.72 60.4612C133.473 59.5351 138.399 60.0104 142.876 61.8269C147.353 63.6434 151.179 66.7195 153.871 70.6663C156.563 74.6131 158 79.2533 158 84C157.993 90.363 155.409 96.4633 150.816 100.963C146.223 105.462 139.996 107.993 133.5 108V108ZM133.5 61.6679C128.991 61.6678 124.583 62.9776 120.834 65.4315C117.085 67.8853 114.163 71.3731 112.438 75.4538C110.712 79.5345 110.261 84.0247 111.141 88.3568C112.02 92.6888 114.191 96.668 117.38 99.7912C120.568 102.914 124.63 105.041 129.052 105.903C133.475 106.765 138.058 106.323 142.224 104.632C146.39 102.942 149.95 100.08 152.455 96.4071C154.96 92.7346 156.297 88.4169 156.297 84C156.29 78.0793 153.886 72.4029 149.613 68.2163C145.339 64.0296 139.544 61.6746 133.5 61.6679V61.6679Z" fill="#FED049"/>
<path d="M143.973 93.7362C142.279 85.06 138.75 76.8383 133.619 69.6131C133.503 69.4258 133.341 69.2711 133.148 69.1637C132.954 69.0564 132.736 69 132.515 69C132.293 69 132.076 69.0564 131.882 69.1637C131.689 69.2711 131.527 69.4258 131.411 69.6131C126.942 77.3652 124.086 85.9273 123.011 94.7931C122.812 96.4094 125.371 96.3952 125.568 94.7931C125.927 91.9199 126.487 89.0749 127.244 86.2788C127.342 86.2596 127.438 86.2306 127.53 86.192C130.93 84.4989 134.771 83.8785 138.537 84.4142C138.57 84.419 138.601 84.412 138.634 84.4151C139.878 87.6595 140.839 91.0034 141.507 94.4104C141.819 96.0112 144.284 95.3334 143.973 93.7362ZM128.165 83.1686C129.338 79.5573 130.832 76.0563 132.629 72.7068C134.532 75.5892 136.183 78.6268 137.567 81.7867C134.368 81.5481 131.156 82.0202 128.165 83.1686V83.1686Z" fill="#FED049"/>
<path d="M666.805 370.33L666.806 370.331C668.872 371.58 670.98 372.804 673.091 374.03C673.252 374.124 673.413 374.217 673.575 374.311C672.322 387.562 670.279 400.725 667.458 413.732L666.006 413.351L665.978 413.343L665.949 413.339C665.874 413.329 665.8 413.313 665.727 413.292L665.727 413.292L665.717 413.289C664.501 412.967 663.285 412.651 662.07 412.334L662.064 412.333C660.905 412.031 659.746 411.73 658.588 411.423C655.126 406.807 652.253 401.777 650.035 396.451C650.861 395.813 651.502 394.962 651.886 393.987C652.321 392.882 652.406 391.67 652.128 390.515C651.851 389.361 651.225 388.32 650.336 387.533C649.485 386.779 648.431 386.294 647.307 386.136C647.011 385.891 646.769 385.688 646.479 385.443C646.455 385.424 646.431 385.403 646.407 385.383C646.405 385.377 646.404 385.37 646.402 385.364L646.401 385.36C646.388 385.305 646.372 385.24 646.354 385.177C643.539 373.374 656.426 364.031 666.805 370.33Z" fill="#007580" stroke="#FED049"/>
<path d="M621.517 223.766C612.575 216.77 601.601 212.468 590.662 208.18C588.202 207.217 585.745 206.253 583.313 205.26L583.313 205.26C567.864 198.934 552.203 214.352 558.756 229.657L558.759 229.663C558.777 229.708 558.794 229.749 558.809 229.787C558.812 229.795 558.815 229.803 558.819 229.811C560.229 229.819 561.639 229.875 563.049 229.98L563.05 229.98C565.046 230.132 566.949 230.883 568.512 232.135C570.074 233.387 571.222 235.081 571.806 236.996C572.39 238.91 572.382 240.956 571.783 242.866C571.212 244.688 570.129 246.304 568.665 247.524C571.315 251.256 574.233 254.792 577.396 258.101C586.649 267.584 597.76 275.054 610.033 280.044C622.306 285.034 635.476 287.436 648.717 287.099C649.582 287.072 650.42 287.044 651.266 286.989L651.714 286.96L651.791 287.402C653.608 297.815 656.16 308.086 659.428 318.139L659.428 318.14C662.287 327.022 665.693 335.719 669.625 344.181C671.553 348.31 673.61 352.375 675.798 356.376C677.756 357.34 679.719 358.291 681.689 359.228C681.241 358.459 680.797 357.686 680.357 356.91L680.356 356.909C676.428 349.949 672.894 342.774 669.769 335.419C667.204 329.387 664.915 323.259 662.903 317.035L662.903 317.034C651.983 283.212 649.244 247.285 654.911 212.207L654.927 212.108L654.981 212.022C661.383 201.765 664.485 189.789 663.87 177.709L663.87 177.708C663.668 173.597 662.908 169.533 661.61 165.628C660.792 166.221 659.952 166.782 659.124 167.322L659.122 167.323C658.962 167.427 658.797 167.53 658.635 167.632L658.633 167.633C658.472 167.734 658.315 167.833 658.162 167.932L658.047 168.011L658.037 168.018L658.027 168.024C656.819 168.778 655.418 169.166 653.993 169.142C652.568 169.118 651.181 168.683 649.997 167.889C648.814 167.095 647.885 165.977 647.322 164.668C646.759 163.359 646.586 161.917 646.823 160.513C646.915 159.931 647.018 159.347 647.118 158.77C647.16 158.534 647.201 158.3 647.241 158.067C647.368 157.249 647.512 156.434 647.655 155.622C647.731 155.186 647.808 154.751 647.882 154.316L647.884 154.302L647.888 154.287C647.913 154.181 647.931 154.073 647.943 153.964L647.944 153.95L647.947 153.936C648.032 153.428 648.12 152.925 648.207 152.425C648.346 151.622 648.485 150.825 648.614 150.02C646.051 148.728 643.234 148.018 640.364 147.941C630.102 147.777 621.114 156.939 619.455 167.185L619.455 167.185C617.788 177.434 622.308 187.994 629.312 195.771L629.313 195.772C635.303 202.444 642.945 207.361 650.91 211.707L651.218 211.875L651.165 212.222C651.108 212.593 651.048 212.941 650.988 213.285C650.913 213.717 650.84 214.142 650.776 214.596L650.776 214.6C648.617 229.146 647.891 243.869 648.608 258.558L647.646 258.77C642.123 245.208 631.124 231.287 621.517 223.766ZM621.517 223.766L621.825 223.372M621.517 223.766L621.825 223.372M621.825 223.372C631.183 230.698 641.832 244.03 647.547 257.244L568.141 247.304C569.634 246.129 570.737 244.53 571.306 242.716C571.874 240.903 571.882 238.96 571.328 237.141C570.773 235.323 569.683 233.714 568.199 232.525C566.715 231.336 564.907 230.623 563.012 230.479C561.505 230.367 559.999 230.31 558.492 230.31C558.435 230.195 558.388 230.081 558.34 229.962C558.326 229.926 558.311 229.89 558.296 229.854C551.558 214.116 567.662 198.31 583.502 204.797C585.918 205.784 588.365 206.743 590.818 207.704C601.761 211.993 612.82 216.327 621.825 223.372Z" fill="#007580" stroke="#FED049"/>
</g>
<defs>
<clipPath id="clip0_12_30">
<rect width="676" height="676" fill="white"/>
</clipPath>
</defs>
</svg>
