<svg width="238" height="23" viewBox="0 0 238 23" fill="none" xmlns="http://www.w3.org/2000/svg">
<path d="M10.6494 22.5713C9.86816 22.5713 9.08203 22.5029 8.29102 22.3662C7.50977 22.2295 6.75781 21.9951 6.03516 21.6631C5.3125 21.3311 4.63867 20.8916 4.01367 20.3447C3.38867 19.7881 2.8418 19.0996 2.37305 18.2793C1.91406 17.4492 1.55273 16.4727 1.28906 15.3496C1.02539 14.2168 0.893555 12.9033 0.893555 11.4092C0.893555 9.9248 1.02539 8.61621 1.28906 7.4834C1.55273 6.35059 1.91406 5.37402 2.37305 4.55371C2.8418 3.72363 3.38867 3.03516 4.01367 2.48828C4.63867 1.94141 5.3125 1.50684 6.03516 1.18457C6.75781 0.852539 7.50977 0.618164 8.29102 0.481445C9.08203 0.344727 9.86816 0.276367 10.6494 0.276367C11.4307 0.276367 12.2168 0.344727 13.0078 0.481445C13.7988 0.618164 14.5557 0.852539 15.2783 1.18457C16.001 1.50684 16.6748 1.94141 17.2998 2.48828C17.9248 3.03516 18.4668 3.72363 18.9258 4.55371C19.3848 5.37402 19.7461 6.35059 20.0098 7.4834C20.2734 8.61621 20.4053 9.9248 20.4053 11.4092C20.4053 12.8936 20.2734 14.2021 20.0098 15.335C19.7461 16.4678 19.3848 17.4492 18.9258 18.2793C18.4668 19.0996 17.9248 19.7881 17.2998 20.3447C16.6748 20.8916 16.001 21.3311 15.2783 21.6631C14.5557 21.9951 13.7988 22.2295 13.0078 22.3662C12.2168 22.5029 11.4307 22.5713 10.6494 22.5713ZM11.9678 11.4092C11.9678 12.6299 12.0557 13.6504 12.2314 14.4707C12.417 15.291 12.6611 15.9502 12.9639 16.4482C13.2666 16.9463 13.6035 17.3027 13.9746 17.5176C14.3555 17.7227 14.7461 17.8252 15.1465 17.8252C15.5469 17.8252 15.9375 17.7227 16.3184 17.5176C16.6992 17.3027 17.0361 16.9463 17.3291 16.4482C17.6318 15.9502 17.8711 15.291 18.0469 14.4707C18.2324 13.6504 18.3252 12.6299 18.3252 11.4092C18.3252 10.1885 18.2324 9.16797 18.0469 8.34766C17.8711 7.52734 17.6318 6.86816 17.3291 6.37012C17.0361 5.87207 16.6992 5.52051 16.3184 5.31543C15.9375 5.10059 15.5469 4.99316 15.1465 4.99316C14.7461 4.99316 14.3555 5.10059 13.9746 5.31543C13.6035 5.52051 13.2666 5.87207 12.9639 6.37012C12.6611 6.86816 12.417 7.52734 12.2314 8.34766C12.0557 9.16797 11.9678 10.1885 11.9678 11.4092ZM39.4482 0.964844C39.6338 0.964844 39.7998 1.02344 39.9463 1.14062C40.0928 1.25781 40.166 1.48242 40.166 1.81445V20.916C40.166 21.6387 39.8242 22 39.1406 22H34.0576C33.7354 22 33.4668 21.9365 33.252 21.8096C33.0469 21.6826 32.8613 21.5361 32.6953 21.3701L25.1953 13.5332C25.2832 14.8027 25.3711 15.9697 25.459 17.0342C25.4883 17.4932 25.5225 17.9473 25.5615 18.3965C25.6006 18.8457 25.6348 19.2656 25.6641 19.6562C25.6934 20.0469 25.7178 20.3887 25.7373 20.6816C25.7666 20.9746 25.7861 21.1846 25.7959 21.3115C25.8154 21.4775 25.7861 21.6338 25.708 21.7803C25.6396 21.9268 25.4736 22 25.21 22H23.3643C23.1885 22 23.0225 21.9463 22.8662 21.8389C22.7197 21.7217 22.6465 21.4971 22.6465 21.165V2.04883C22.6465 1.32617 23.0469 0.964844 23.8477 0.964844H28.7988C29.1699 0.964844 29.4775 1.04297 29.7217 1.19922C29.9756 1.35547 30.2295 1.56055 30.4834 1.81445L37.6172 8.88965C37.5195 7.72754 37.4316 6.65332 37.3535 5.66699C37.3145 5.24707 37.2754 4.82715 37.2363 4.40723C37.207 3.9873 37.1777 3.59668 37.1484 3.23535C37.1191 2.86426 37.0898 2.54199 37.0605 2.26855C37.041 1.99512 37.0264 1.79004 37.0166 1.65332C36.9971 1.49707 37.0264 1.3457 37.1045 1.19922C37.1924 1.04297 37.3877 0.964844 37.6904 0.964844H39.4482ZM42.8613 3.01562C42.8613 2.67383 42.8906 2.37598 42.9492 2.12207C43.0078 1.86816 43.1201 1.6582 43.2861 1.49219C43.4521 1.31641 43.6816 1.18457 43.9746 1.09668C44.2676 1.00879 44.6484 0.964844 45.1172 0.964844H51.6504C52.2168 0.964844 52.6465 1.04785 52.9395 1.21387C53.2422 1.37988 53.4521 1.58984 53.5693 1.84375C53.6963 2.08789 53.7646 2.35156 53.7744 2.63477C53.7842 2.9082 53.7891 3.16211 53.7891 3.39648V19.9932C54.4629 19.8955 55.0879 19.8076 55.6641 19.7295C55.9082 19.7002 56.1523 19.6709 56.3965 19.6416C56.6504 19.6025 56.8799 19.5684 57.085 19.5391C57.2998 19.5098 57.4902 19.4902 57.6562 19.4805C57.8223 19.4609 57.9443 19.4512 58.0225 19.4512C58.1885 19.4512 58.3203 19.4854 58.418 19.5537C58.5254 19.6123 58.5791 19.7393 58.5791 19.9346V21.2822C58.5791 21.458 58.501 21.624 58.3447 21.7803C58.1982 21.9268 57.959 22 57.627 22H45.0879C44.6289 22 44.2529 21.9561 43.96 21.8682C43.6768 21.7803 43.4521 21.6533 43.2861 21.4873C43.1201 21.3213 43.0078 21.1113 42.9492 20.8574C42.8906 20.6035 42.8613 20.3057 42.8613 19.9639V3.01562ZM60.2344 3.01562C60.2344 2.67383 60.2637 2.37598 60.3223 2.12207C60.3809 1.86816 60.4932 1.6582 60.6592 1.49219C60.8252 1.31641 61.0547 1.18457 61.3477 1.09668C61.6406 1.00879 62.0215 0.964844 62.4902 0.964844H69.0234C69.5898 0.964844 70.0195 1.04785 70.3125 1.21387C70.6152 1.37988 70.8252 1.58984 70.9424 1.84375C71.0693 2.08789 71.1377 2.35156 71.1475 2.63477C71.1572 2.9082 71.1621 3.16211 71.1621 3.39648V19.627C71.1621 19.8516 71.1426 20.1006 71.1035 20.374C71.0645 20.6475 70.9668 20.9062 70.8105 21.1504C70.6543 21.3848 70.415 21.585 70.0928 21.751C69.7705 21.917 69.3262 22 68.7598 22H62.4902C62.0215 22 61.6406 21.9561 61.3477 21.8682C61.0547 21.7803 60.8252 21.6533 60.6592 21.4873C60.4932 21.3213 60.3809 21.1113 60.3223 20.8574C60.2637 20.6035 60.2344 20.3057 60.2344 19.9639V3.01562ZM90.6885 0.964844C90.874 0.964844 91.04 1.02344 91.1865 1.14062C91.333 1.25781 91.4062 1.48242 91.4062 1.81445V20.916C91.4062 21.6387 91.0645 22 90.3809 22H85.2979C84.9756 22 84.707 21.9365 84.4922 21.8096C84.2871 21.6826 84.1016 21.5361 83.9355 21.3701L76.4355 13.5332C76.5234 14.8027 76.6113 15.9697 76.6992 17.0342C76.7285 17.4932 76.7627 17.9473 76.8018 18.3965C76.8408 18.8457 76.875 19.2656 76.9043 19.6562C76.9336 20.0469 76.958 20.3887 76.9775 20.6816C77.0068 20.9746 77.0264 21.1846 77.0361 21.3115C77.0557 21.4775 77.0264 21.6338 76.9482 21.7803C76.8799 21.9268 76.7139 22 76.4502 22H74.6045C74.4287 22 74.2627 21.9463 74.1064 21.8389C73.96 21.7217 73.8867 21.4971 73.8867 21.165V2.04883C73.8867 1.32617 74.2871 0.964844 75.0879 0.964844H80.0391C80.4102 0.964844 80.7178 1.04297 80.9619 1.19922C81.2158 1.35547 81.4697 1.56055 81.7236 1.81445L88.8574 8.88965C88.7598 7.72754 88.6719 6.65332 88.5938 5.66699C88.5547 5.24707 88.5156 4.82715 88.4766 4.40723C88.4473 3.9873 88.418 3.59668 88.3887 3.23535C88.3594 2.86426 88.3301 2.54199 88.3008 2.26855C88.2812 1.99512 88.2666 1.79004 88.2568 1.65332C88.2373 1.49707 88.2666 1.3457 88.3447 1.19922C88.4326 1.04297 88.6279 0.964844 88.9307 0.964844H90.6885ZM105.029 8.31836V20.1982C105.977 20.0615 106.846 19.9395 107.637 19.832C107.969 19.7832 108.301 19.7393 108.633 19.7002C108.975 19.6514 109.287 19.6074 109.57 19.5684C109.854 19.5293 110.098 19.5 110.303 19.4805C110.508 19.4609 110.649 19.4512 110.728 19.4512C110.894 19.4512 111.035 19.4854 111.152 19.5537C111.27 19.6123 111.328 19.7393 111.328 19.9346V21.2822C111.328 21.458 111.284 21.624 111.196 21.7803C111.108 21.9268 110.898 22 110.566 22H96.3281C95.8691 22 95.4932 21.9561 95.2002 21.8682C94.917 21.7803 94.6924 21.6533 94.5264 21.4873C94.3604 21.3213 94.248 21.1113 94.1895 20.8574C94.1309 20.6035 94.1016 20.3057 94.1016 19.9639V3.51367C94.1016 2.95703 94.165 2.5127 94.292 2.18066C94.4189 1.83887 94.5996 1.58008 94.834 1.4043C95.0684 1.21875 95.3467 1.10156 95.6689 1.05273C96.001 0.994141 96.3672 0.964844 96.7676 0.964844H110.01C110.342 0.964844 110.552 1.04297 110.64 1.19922C110.737 1.3457 110.786 1.51172 110.786 1.69727V2.7373C110.786 2.93262 110.732 3.06445 110.625 3.13281C110.527 3.19141 110.396 3.2207 110.229 3.2207C110.132 3.2207 109.98 3.21094 109.775 3.19141C109.58 3.17188 109.351 3.14746 109.087 3.11816C108.823 3.0791 108.54 3.04004 108.237 3.00098C107.935 2.96191 107.632 2.91797 107.329 2.86914C106.626 2.76172 105.859 2.63965 105.029 2.50293V6.22363H110.479C110.684 6.22363 110.786 6.32617 110.786 6.53125V7.99609C110.786 8.21094 110.684 8.31836 110.479 8.31836H105.029ZM125.713 6.00391C125.82 4.93945 126.108 4.05078 126.577 3.33789C127.046 2.625 127.627 2.05859 128.32 1.63867C129.014 1.20898 129.785 0.90625 130.635 0.730469C131.484 0.554688 132.344 0.466797 133.213 0.466797C133.926 0.466797 134.624 0.496094 135.308 0.554688C135.991 0.613281 136.621 0.681641 137.197 0.759766C137.773 0.837891 138.271 0.916016 138.691 0.994141C139.111 1.07227 139.419 1.13086 139.614 1.16992C139.731 1.19922 139.79 1.25293 139.79 1.33105C139.79 1.35059 139.78 1.40918 139.761 1.50684L139.541 2.56152C139.521 2.62988 139.492 2.67383 139.453 2.69336C139.424 2.70313 139.395 2.70801 139.365 2.70801C138.936 2.70801 138.564 2.78125 138.252 2.92773C137.939 3.07422 137.681 3.2793 137.476 3.54297C137.271 3.80664 137.114 4.11914 137.007 4.48047C136.899 4.8418 136.826 5.23242 136.787 5.65234L135.908 16.3018C135.83 17.1611 135.61 17.9717 135.249 18.7334C134.888 19.4951 134.385 20.1592 133.74 20.7256C133.096 21.292 132.305 21.7412 131.367 22.0732C130.43 22.4053 129.355 22.5713 128.145 22.5713C127.334 22.5713 126.553 22.5322 125.801 22.4541C125.049 22.376 124.365 22.2832 123.75 22.1758C123.135 22.0684 122.603 21.9658 122.153 21.8682C121.714 21.7607 121.396 21.6826 121.201 21.6338C121.084 21.6045 121.025 21.5508 121.025 21.4727C121.025 21.4629 121.035 21.4092 121.055 21.3115L121.304 20.1982C121.323 20.1299 121.348 20.0908 121.377 20.0811C121.416 20.0615 121.45 20.0518 121.479 20.0518C121.909 20.0518 122.305 19.9883 122.666 19.8613C123.037 19.7344 123.359 19.5244 123.633 19.2314C123.906 18.9385 124.131 18.5576 124.307 18.0889C124.492 17.6201 124.619 17.0439 124.688 16.3604L125.713 6.00391ZM151.421 11.4238C151.421 12.625 151.47 13.665 151.567 14.5439C151.665 15.4131 151.792 16.1553 151.948 16.7705C152.114 17.376 152.305 17.8691 152.52 18.25C152.744 18.6211 152.974 18.9141 153.208 19.1289C153.442 19.334 153.677 19.4756 153.911 19.5537C154.155 19.6221 154.385 19.6562 154.6 19.6562C154.844 19.6562 155.063 19.627 155.259 19.5684C155.454 19.5 155.63 19.4268 155.786 19.3486C155.942 19.2607 156.069 19.1875 156.167 19.1289C156.274 19.0605 156.357 19.0264 156.416 19.0264C156.494 19.0264 156.562 19.0703 156.621 19.1582L157.251 20.1543C157.28 20.2129 157.295 20.2617 157.295 20.3008C157.295 20.3496 157.275 20.3936 157.236 20.4326C157.197 20.4619 157.163 20.4912 157.134 20.5205C156.831 20.7549 156.445 20.9941 155.977 21.2383C155.508 21.4824 154.971 21.7021 154.365 21.8975C153.77 22.0928 153.11 22.2539 152.388 22.3809C151.665 22.5078 150.903 22.5713 150.103 22.5713C149.37 22.5713 148.618 22.498 147.847 22.3516C147.085 22.2148 146.343 21.9805 145.62 21.6484C144.897 21.3066 144.214 20.8574 143.569 20.3008C142.935 19.7441 142.378 19.0557 141.899 18.2354C141.421 17.4053 141.04 16.4336 140.757 15.3203C140.483 14.1973 140.347 12.8984 140.347 11.4238C140.347 9.94922 140.483 8.65527 140.757 7.54199C141.04 6.41895 141.421 5.44727 141.899 4.62695C142.378 3.79688 142.935 3.10352 143.569 2.54688C144.214 1.99023 144.897 1.5459 145.62 1.21387C146.343 0.87207 147.085 0.632812 147.847 0.496094C148.618 0.349609 149.37 0.276367 150.103 0.276367C150.903 0.276367 151.665 0.339844 152.388 0.466797C153.11 0.59375 153.77 0.754883 154.365 0.950195C154.971 1.14551 155.508 1.36523 155.977 1.60938C156.445 1.85352 156.831 2.09277 157.134 2.32715C157.163 2.35645 157.197 2.39062 157.236 2.42969C157.275 2.45898 157.295 2.49805 157.295 2.54688C157.295 2.58594 157.28 2.63477 157.251 2.69336L156.621 3.68945C156.562 3.77734 156.494 3.82129 156.416 3.82129C156.357 3.82129 156.274 3.79199 156.167 3.7334C156.069 3.66504 155.942 3.5918 155.786 3.51367C155.63 3.42578 155.454 3.35254 155.259 3.29395C155.063 3.22559 154.844 3.19141 154.6 3.19141C154.385 3.19141 154.155 3.23047 153.911 3.30859C153.677 3.37695 153.442 3.51855 153.208 3.7334C152.974 3.93848 152.744 4.23145 152.52 4.6123C152.305 4.9834 152.114 5.47656 151.948 6.0918C151.792 6.69727 151.665 7.43945 151.567 8.31836C151.47 9.1875 151.421 10.2227 151.421 11.4238ZM172.5 14.3242H170.01V19.627C170.01 19.8516 169.99 20.1006 169.951 20.374C169.912 20.6475 169.814 20.9062 169.658 21.1504C169.502 21.3848 169.263 21.585 168.94 21.751C168.618 21.917 168.174 22 167.607 22H161.338C160.869 22 160.488 21.9561 160.195 21.8682C159.902 21.7803 159.673 21.6533 159.507 21.4873C159.341 21.3213 159.229 21.1113 159.17 20.8574C159.111 20.6035 159.082 20.3057 159.082 19.9639V3.01562C159.082 2.67383 159.111 2.37598 159.17 2.12207C159.229 1.86816 159.341 1.6582 159.507 1.49219C159.673 1.31641 159.902 1.18457 160.195 1.09668C160.488 1.00879 160.869 0.964844 161.338 0.964844H167.871C168.438 0.964844 168.867 1.04785 169.16 1.21387C169.463 1.37988 169.673 1.58984 169.79 1.84375C169.917 2.08789 169.985 2.35156 169.995 2.63477C170.005 2.9082 170.01 3.16211 170.01 3.39648V12.2148H172.5V1.65332C172.5 1.4873 172.544 1.33105 172.632 1.18457C172.72 1.03809 172.891 0.964844 173.145 0.964844H174.668C174.756 0.964844 174.839 0.969727 174.917 0.979492C175.005 0.989258 175.078 1.01855 175.137 1.06738C175.205 1.10645 175.254 1.1748 175.283 1.27246C175.322 1.36035 175.342 1.4873 175.342 1.65332V12.2148H176.748C176.953 12.2148 177.056 12.3174 177.056 12.5225V14.002C177.056 14.2168 176.953 14.3242 176.748 14.3242H175.342V21.3115C175.342 21.4775 175.322 21.6094 175.283 21.707C175.254 21.7949 175.205 21.8633 175.137 21.9121C175.078 21.9512 175.005 21.9756 174.917 21.9854C174.839 21.9951 174.756 22 174.668 22H173.101C172.847 22 172.681 21.9268 172.603 21.7803C172.534 21.6338 172.5 21.4775 172.5 21.3115V14.3242ZM188.247 22.5713C187.466 22.5713 186.68 22.5029 185.889 22.3662C185.107 22.2295 184.355 21.9951 183.633 21.6631C182.91 21.3311 182.236 20.8916 181.611 20.3447C180.986 19.7881 180.439 19.0996 179.971 18.2793C179.512 17.4492 179.15 16.4727 178.887 15.3496C178.623 14.2168 178.491 12.9033 178.491 11.4092C178.491 9.9248 178.623 8.61621 178.887 7.4834C179.15 6.35059 179.512 5.37402 179.971 4.55371C180.439 3.72363 180.986 3.03516 181.611 2.48828C182.236 1.94141 182.91 1.50684 183.633 1.18457C184.355 0.852539 185.107 0.618164 185.889 0.481445C186.68 0.344727 187.466 0.276367 188.247 0.276367C189.028 0.276367 189.814 0.344727 190.605 0.481445C191.396 0.618164 192.153 0.852539 192.876 1.18457C193.599 1.50684 194.272 1.94141 194.897 2.48828C195.522 3.03516 196.064 3.72363 196.523 4.55371C196.982 5.37402 197.344 6.35059 197.607 7.4834C197.871 8.61621 198.003 9.9248 198.003 11.4092C198.003 12.8936 197.871 14.2021 197.607 15.335C197.344 16.4678 196.982 17.4492 196.523 18.2793C196.064 19.0996 195.522 19.7881 194.897 20.3447C194.272 20.8916 193.599 21.3311 192.876 21.6631C192.153 21.9951 191.396 22.2295 190.605 22.3662C189.814 22.5029 189.028 22.5713 188.247 22.5713ZM189.565 11.4092C189.565 12.6299 189.653 13.6504 189.829 14.4707C190.015 15.291 190.259 15.9502 190.562 16.4482C190.864 16.9463 191.201 17.3027 191.572 17.5176C191.953 17.7227 192.344 17.8252 192.744 17.8252C193.145 17.8252 193.535 17.7227 193.916 17.5176C194.297 17.3027 194.634 16.9463 194.927 16.4482C195.229 15.9502 195.469 15.291 195.645 14.4707C195.83 13.6504 195.923 12.6299 195.923 11.4092C195.923 10.1885 195.83 9.16797 195.645 8.34766C195.469 7.52734 195.229 6.86816 194.927 6.37012C194.634 5.87207 194.297 5.52051 193.916 5.31543C193.535 5.10059 193.145 4.99316 192.744 4.99316C192.344 4.99316 191.953 5.10059 191.572 5.31543C191.201 5.52051 190.864 5.87207 190.562 6.37012C190.259 6.86816 190.015 7.52734 189.829 8.34766C189.653 9.16797 189.565 10.1885 189.565 11.4092ZM209.546 22.5713C208.765 22.5713 207.979 22.5029 207.188 22.3662C206.406 22.2295 205.654 21.9951 204.932 21.6631C204.209 21.3311 203.535 20.8916 202.91 20.3447C202.285 19.7881 201.738 19.0996 201.27 18.2793C200.811 17.4492 200.449 16.4727 200.186 15.3496C199.922 14.2168 199.79 12.9033 199.79 11.4092C199.79 9.9248 199.922 8.61621 200.186 7.4834C200.449 6.35059 200.811 5.37402 201.27 4.55371C201.738 3.72363 202.285 3.03516 202.91 2.48828C203.535 1.94141 204.209 1.50684 204.932 1.18457C205.654 0.852539 206.406 0.618164 207.188 0.481445C207.979 0.344727 208.765 0.276367 209.546 0.276367C210.327 0.276367 211.113 0.344727 211.904 0.481445C212.695 0.618164 213.452 0.852539 214.175 1.18457C214.897 1.50684 215.571 1.94141 216.196 2.48828C216.821 3.03516 217.363 3.72363 217.822 4.55371C218.281 5.37402 218.643 6.35059 218.906 7.4834C219.17 8.61621 219.302 9.9248 219.302 11.4092C219.302 12.8936 219.17 14.2021 218.906 15.335C218.643 16.4678 218.281 17.4492 217.822 18.2793C217.363 19.0996 216.821 19.7881 216.196 20.3447C215.571 20.8916 214.897 21.3311 214.175 21.6631C213.452 21.9951 212.695 22.2295 211.904 22.3662C211.113 22.5029 210.327 22.5713 209.546 22.5713ZM210.864 11.4092C210.864 12.6299 210.952 13.6504 211.128 14.4707C211.313 15.291 211.558 15.9502 211.86 16.4482C212.163 16.9463 212.5 17.3027 212.871 17.5176C213.252 17.7227 213.643 17.8252 214.043 17.8252C214.443 17.8252 214.834 17.7227 215.215 17.5176C215.596 17.3027 215.933 16.9463 216.226 16.4482C216.528 15.9502 216.768 15.291 216.943 14.4707C217.129 13.6504 217.222 12.6299 217.222 11.4092C217.222 10.1885 217.129 9.16797 216.943 8.34766C216.768 7.52734 216.528 6.86816 216.226 6.37012C215.933 5.87207 215.596 5.52051 215.215 5.31543C214.834 5.10059 214.443 4.99316 214.043 4.99316C213.643 4.99316 213.252 5.10059 212.871 5.31543C212.5 5.52051 212.163 5.87207 211.86 6.37012C211.558 6.86816 211.313 7.52734 211.128 8.34766C210.952 9.16797 210.864 10.1885 210.864 11.4092ZM221.543 3.01562C221.543 2.67383 221.572 2.37598 221.631 2.12207C221.689 1.86816 221.802 1.6582 221.968 1.49219C222.134 1.31641 222.363 1.18457 222.656 1.09668C222.949 1.00879 223.33 0.964844 223.799 0.964844H230.332C230.898 0.964844 231.328 1.04785 231.621 1.21387C231.924 1.37988 232.134 1.58984 232.251 1.84375C232.378 2.08789 232.446 2.35156 232.456 2.63477C232.466 2.9082 232.471 3.16211 232.471 3.39648V19.9932C233.145 19.8955 233.77 19.8076 234.346 19.7295C234.59 19.7002 234.834 19.6709 235.078 19.6416C235.332 19.6025 235.562 19.5684 235.767 19.5391C235.981 19.5098 236.172 19.4902 236.338 19.4805C236.504 19.4609 236.626 19.4512 236.704 19.4512C236.87 19.4512 237.002 19.4854 237.1 19.5537C237.207 19.6123 237.261 19.7393 237.261 19.9346V21.2822C237.261 21.458 237.183 21.624 237.026 21.7803C236.88 21.9268 236.641 22 236.309 22H223.77C223.311 22 222.935 21.9561 222.642 21.8682C222.358 21.7803 222.134 21.6533 221.968 21.4873C221.802 21.3213 221.689 21.1113 221.631 20.8574C221.572 20.6035 221.543 20.3057 221.543 19.9639V3.01562Z" fill="#FED049"/>
</svg>
